<?xml version="1.0" encoding="UTF-8" standalone="no"?><svg width="713" height="592" viewBox="0 0 713 592" version="1.1" xmlns="http://www.w3.org/2000/svg">
<path d="M222.083,424.246c-4.924,2.864 -9.416,4.504 -14.883,4.504c-9.662,0 -12.729,-3.4 -14.567,-10.642l-0.612,0c-5.833,6.067 -13.35,10.792 -22.854,10.792c-14.567,0 -20.854,-8.867 -20.854,-17.442c-0,-5.762 3.22,-12.125 9.658,-15.525c11.041,-5.762 28.525,-5.762 33.583,-7.537l0,-9.908c0,-11.084 -3.675,-15.23 -11.804,-15.23c-3.683,0 -7.058,1.038 -9.204,2.663c1.842,2.221 3.066,4.733 3.066,7.837c0,6.063 -3.987,10.2 -11.037,10.2c-6.596,0 -10.737,-4.287 -10.737,-10.054c-0,-8.866 11.195,-15.079 32.054,-15.079c18.862,0 27.912,7.542 27.912,23.95l0,30.904c0,7.242 2.146,9.008 10.883,6.5l1.23,2.959c-0.575,0.359 -1.141,0.702 -1.702,1.031c8.629,-0.158 10.448,-1.501 10.448,-5.319l-0,-47.308c-0,-4.438 -1.838,-7.096 -10.58,-7.246l0,-3.696l30.671,-1.329l0,13.008c7.208,-7.833 15.642,-13.454 25.613,-13.454c10.271,0 16.408,5.025 18.25,14.196c6.9,-7.988 16.408,-14.196 26.07,-14.196c12.884,0 19.013,7.542 19.013,21.442l0,38.583c0,3.837 1.692,5.175 10.429,5.321l0,3.692l-38.337,-0l-0,-3.692c5.979,-0.146 7.512,-1.484 7.512,-5.321l0,-35.925c0,-8.871 -2.912,-13.454 -10.579,-13.454c-3.988,-0 -9.204,2.954 -13.65,7.687c0.154,1.334 0.304,2.067 0.304,2.959l0,38.733c0,3.837 1.538,5.175 7.821,5.321l0,3.692l-35.883,-0l-0,-3.692c6.137,-0.146 7.67,-1.484 7.67,-5.321l0,-35.925c0,-8.871 -3.379,-13.454 -11.199,-13.454c-5.363,-0 -8.588,2.808 -12.725,6.946l-0,42.433c-0,3.837 1.379,5.175 7.362,5.321l-0,3.692l-38.342,-0l0,-3.617Zm-30.529,-10.863l0,-20.704c-16.867,2.517 -21.621,6.063 -21.621,15.675c0,6.8 3.679,11.383 10.429,11.383c4.6,0 8.738,-2.958 11.192,-6.354Zm429.296,84.542l-0,2.379l-22.237,0l-0,42.433c-0,7.834 2.608,11.525 8.741,11.525c4.6,0 8.438,-3.095 11.813,-9.312l3.37,1.925c-4.904,10.646 -11.962,15.962 -23.308,15.962c-12.117,0 -21.017,-5.612 -21.017,-20.541l0,-41.696l-13.495,-0l-0,-4.283l13.804,-2.813l-0,-18.479l20.092,-5.913l-0,24.688l17.795,-0l0,-0.446l41.713,0l-0,3.554c-8.592,0.738 -10.121,3.1 -8.129,7.684l16.408,37.408l13.033,-30.604c3.988,-9.317 1.846,-13.017 -8.587,-14.488l-0,-3.554l29.754,0l-0,3.554c-5.371,0.588 -9.817,3.692 -13.187,11.084l-26.838,60.32c-7.975,18.038 -15.95,23.355 -25,23.355c-9.05,-0 -14.567,-4.729 -14.567,-11.825c0,-5.021 3.834,-10.2 10.429,-10.2c6.13,-0 9.967,4.583 9.967,9.904c0,2.371 -0.921,4.587 -2.154,5.767c5.683,-0.742 10.129,-5.175 16.721,-20.701l0.616,-1.77l-27.45,-56.475c-2.446,-4.935 -4.36,-7.147 -8.287,-8.442Zm-554.292,-103.175l4.759,0c9.05,18.629 20.55,30.454 34.504,30.454c13.191,0 19.479,-8.425 19.479,-16.85c0,-10.941 -7.667,-15.675 -25.454,-21.287c-16.108,-5.03 -32.054,-11.092 -32.054,-29.717c-0,-19.221 14.716,-31.783 36.037,-31.783c8.588,-0 16.871,2.362 22.083,5.025l5.521,-5.767l4.142,0l-0,31.783l-4.754,0c-8.434,-17.15 -17.638,-26.316 -29.142,-26.316c-9.354,-0 -17.021,5.912 -17.021,15.816c0,10.796 8.129,15.084 25.767,20.405c14.262,4.433 30.058,10.5 30.058,29.274c0,17.296 -10.737,34.296 -36.962,34.296c-8.588,0 -19.021,-2.22 -25.609,-5.766l-7.212,6.354l-4.142,-0l0,-35.921Zm287.888,29.421c8.896,-0.146 10.583,-1.484 10.583,-5.321l0,-51.746l-13.191,0l-0,-4.283l13.191,-2.813l0,-4.583c0,-11.529 2.758,-19.808 8.279,-25.275c5.367,-5.325 13.192,-7.692 23.313,-7.692c15.333,0 22.546,5.913 22.546,13.305c-0,6.058 -3.53,10.35 -10.279,10.35c-5.976,-0 -10.734,-3.251 -10.734,-10.792c0,-2.217 1.225,-5.763 2.304,-7.392c-1.383,-0.741 -3.07,-1.183 -4.762,-1.183c-2.45,-0 -4.288,0.592 -6.129,2.366c-2.609,2.513 -4.142,7.838 -4.142,18.776l-0,12.416l19.167,0l-0,6.508l-19.167,0l-0,52.038c-0,3.837 2.763,4.875 14.571,5.321l-0,3.692l-45.55,-0l-0,-3.692Zm52.146,-30.304c-0,-21.738 14.725,-35.779 37.116,-35.779c22.85,-0 36.959,13.454 36.959,35.187c-0,21.875 -14.871,35.921 -36.959,35.921c-23.312,-0 -37.116,-13.45 -37.116,-35.329Zm52.15,-0.296c-0,-20.846 -4.909,-30.904 -15.796,-30.904c-10.892,-0 -14.575,10.058 -14.575,30.904c-0,20.841 4.908,31.042 15.95,31.042c10.579,-0 14.421,-10.201 14.421,-31.042Zm26.533,30.6c8.742,-0.146 10.583,-1.484 10.583,-5.321l0,-47.308c0,-4.438 -1.841,-7.096 -10.583,-7.246l0,-3.696l30.671,-1.329l-0,13.154c5.217,-7.979 12.725,-13.746 21.008,-13.746c9.05,0 13.65,5.471 13.65,12.271c0,6.8 -4.446,11.679 -10.887,11.679c-6.904,0 -11.35,-4.283 -11.35,-9.904c-0,-1.329 0.304,-3.108 0.766,-4.438c-4.75,0.296 -9.504,3.992 -12.883,8.575l0,41.988c0,3.837 2.608,5.025 13.804,5.321l0,3.692l-44.779,-0l0,-3.692Zm67.021,-29.125c-0,-19.809 12.883,-36.663 35.579,-36.663c6.754,0 10.738,1.038 15.033,2.809l0,-25.429c0,-4.58 -1.687,-7.092 -11.35,-7.242l0,-3.696l31.742,-1.479l-0,94.471c-0,3.987 1.996,6.65 10.738,6.65l-0,3.25l-30.826,0.887l0,-8.721c-4.908,5.463 -11.504,9.167 -20.245,9.167c-19.321,0 -30.671,-14.338 -30.671,-34.004Zm50.612,20.7l0,-45.388c-2.608,-4.141 -7.058,-7.246 -13.191,-7.246c-9.663,0 -15.796,11.088 -15.796,30.163c-0,15.375 6.442,27.05 17.483,27.05c5.213,-0 8.433,-1.771 11.504,-4.579Zm-588.037,113.683l-0,-56.471c-0,-5.029 -2.608,-7.096 -14.871,-7.541l0,-3.992l51.679,0l0,3.992c-10.121,0.445 -13.65,2.212 -13.65,7.541l0,56.917c0,19.213 10.588,26.758 27.45,26.758c7.208,0 13.65,-2.066 18.1,-6.358c5.059,-4.879 7.971,-11.679 7.971,-23.062l0,-39.621c0,-14.346 -4.446,-20.55 -19.475,-22.175l0,-3.992l42.175,0l0,3.992c-13.954,1.92 -16.567,7.829 -16.567,22.175l0,41.395c0,21.138 -12.421,35.184 -39.562,35.184c-27.454,-0 -43.25,-10.938 -43.25,-34.742Zm97.092,28.538c8.737,-0.15 10.579,-1.488 10.579,-5.325l-0,-47.309c-0,-4.437 -1.842,-7.096 -10.579,-7.245l-0,-3.696l30.67,-1.33l0,13.009c7.204,-7.834 16.867,-13.454 26.834,-13.454c12.729,-0 18.708,7.537 18.708,21.441l-0,38.584c-0,3.837 1.692,5.175 10.583,5.325l0,3.687l-39.408,0l-0,-3.687c6.133,-0.15 8.433,-1.488 8.433,-5.325l0,-35.925c0,-9.017 -3.066,-13.454 -10.733,-13.454c-5.525,-0 -9.971,2.808 -14.112,6.945l-0,42.434c-0,3.837 2.299,5.175 8.283,5.325l-0,3.687l-39.258,0l-0,-3.687Zm88.033,-0c8.742,-0.15 11.041,-1.488 11.041,-5.325l0,-47.309c0,-4.437 -2.299,-7.096 -11.041,-7.245l-0,-3.696l31.437,-1.33l0,59.58c0,3.837 1.688,5.175 10.584,5.325l-0,3.687l-42.021,0l-0,-3.687Zm8.742,-88.113c-0,-7.246 4.904,-11.979 12.116,-11.979c7.363,-0 12.113,4.433 12.113,11.533c-0,7.246 -4.75,11.975 -12.113,11.975c-7.212,0 -12.116,-4.287 -12.116,-11.529Zm42.791,36.513c-2.762,-6.65 -5.216,-8.279 -12.271,-9.459l0,-3.554l41.563,0l-0,3.554c-6.592,0.738 -9.2,1.771 -9.2,4.729c-0,0.884 0.15,1.626 0.612,2.955l15.796,40.512l0.613,0l13.341,-33.121c1.23,-3.4 1.842,-5.912 1.842,-7.537c-0,-4.292 -2.917,-6.509 -10.275,-7.538l0,-3.554l29.6,0l-0,3.554c-5.371,0.588 -9.817,3.842 -12.733,10.492l-23.613,55.146l-11.962,-0l-23.313,-56.179Zm68.1,22.025c0,-22.467 15.338,-36.513 36.192,-36.513c21.625,0 32.512,14.929 31.442,34.3l-46.163,0l-0,1.775c-0,16.854 7.512,27.496 22.233,27.496c8.592,-0 15.029,-4.433 20.863,-12.121l3.067,2.217c-6.751,10.346 -16.259,17.446 -31.442,17.446c-22.388,-0 -36.192,-12.863 -36.192,-34.6Zm21.621,-6.5l25.158,-0.146c1.684,-14.788 -2.15,-25.288 -11.658,-25.288c-8.283,0 -12.733,9.021 -13.5,25.434Zm50.621,36.075c8.742,-0.15 10.579,-1.488 10.579,-5.325l-0,-47.309c-0,-4.437 -1.837,-7.096 -10.579,-7.245l-0,-3.696l30.675,-1.33l-0,13.155c5.212,-7.98 12.725,-13.746 21.008,-13.746c9.046,-0 13.65,5.471 13.65,12.271c0,6.795 -4.446,11.679 -10.887,11.679c-6.905,-0 -11.35,-4.288 -11.35,-9.909c-0,-1.329 0.304,-3.104 0.762,-4.433c-4.75,0.296 -9.5,3.992 -12.879,8.575l0,41.988c0,3.837 2.604,5.025 13.804,5.325l0,3.687l-44.783,0l-0,-3.687Zm68.558,-19.667l4.296,0c8.279,13.308 16.712,19.808 26.071,19.808c7.821,0 11.808,-3.991 11.808,-9.458c0,-6.504 -4.754,-9.454 -19.479,-13.6c-16.104,-4.433 -22.542,-9.317 -22.542,-20.108c0,-13.746 11.346,-22.767 28.217,-22.767c6.596,-0 13.187,2.071 17.329,4.583l3.838,-4.583l3.983,-0l-0,21.879l-4.296,0c-7.667,-11.233 -13.646,-17.296 -22.083,-17.296c-6.438,0 -11.038,3.842 -11.038,9.905c0,6.062 6.134,8.574 16.713,11.087c16.258,3.992 24.842,9.463 24.842,21.587c-0,13.305 -11.342,23.5 -28.676,23.5c-5.674,0 -16.104,-2.512 -20.241,-5.02l-4.604,5.02l-4.138,0l0,-24.537Zm62.117,19.667c8.737,-0.15 11.046,-1.488 11.046,-5.325l-0,-47.309c-0,-4.437 -2.309,-7.096 -11.046,-7.245l-0,-3.696l31.437,-1.33l0,59.58c0,3.837 1.692,5.175 10.584,5.325l-0,3.687l-42.021,0l-0,-3.687Zm8.737,-88.113c0,-7.246 4.913,-11.979 12.121,-11.979c7.363,-0 12.113,4.433 12.113,11.533c-0,7.246 -4.75,11.975 -12.113,11.975c-7.208,0 -12.121,-4.287 -12.121,-11.529Zm173.517,91.5c-3.117,0 -5.196,-2.212 -5.196,-5.392c0,-3.162 2.079,-5.391 5.184,-5.391c3.116,-0 5.195,2.212 5.195,5.391c0,3.163 -2.062,5.392 -5.183,5.392Zm-0.012,-10.35c-2.775,0 -4.659,1.946 -4.659,4.958c0,3.013 1.917,4.959 4.688,4.959c2.77,-0 4.654,-1.946 4.654,-4.959c-0,-3.012 -1.929,-4.958 -4.683,-4.958Zm-0.213,5.413l-0.725,-0l-0,2.425l-0.783,-0l-0,-5.938l1.641,0c1.209,0 1.992,0.663 1.992,1.733c0,0.871 -0.529,1.43 -1.283,1.659l1.841,2.425l-0.858,0.166l-1.825,-2.47Zm-0.725,-0.696l0.771,-0c0.779,-0 1.266,-0.375 1.266,-1.071c0,-0.629 -0.424,-1.025 -1.204,-1.025l-0.833,-0l-0,2.096Z" fill="#0c2340"/>
    <path d="M379.617,217.804c7.883,-0.008 15.912,9.171 17.937,20.525c2.008,11.35 -2.746,20.554 -10.629,20.567c-7.887,0.008 -15.917,-9.179 -17.938,-20.529c-2.016,-11.342 2.738,-20.55 10.63,-20.563Zm11.712,36.684c2.704,-3.238 3.688,-8.755 2.617,-14.759c-1.763,-9.917 -8.746,-18.287 -15.254,-18.287c-2.088,0.004 -3.879,0.887 -5.329,2.616c-2.713,3.242 -3.68,8.75 -2.613,14.767c1.762,9.908 8.75,18.283 15.246,18.275c2.087,0 3.887,-0.883 5.333,-2.612Zm-10.017,-0.8l-0.024,-13.526l6.42,-12.02l-6.396,25.546Zm-101.47,-28.642l-3.071,-4.525l21.575,-12.954l-4.913,2.775c10.321,-13.717 10.392,-27.263 10.392,-27.263l0.054,-0.033l-0.008,-5.009l2.933,-1.833l-0.067,-44.308l-4.575,-12.892l15.951,-12.016c5.449,-14.346 13.266,-23.275 22.858,-26.701l-0.021,-6.85l-1.863,-4.508l6.467,-4.217l-2.616,-2.591l0.004,-0.079l0.354,-3.238l3.812,-34.683c-0.762,-0.696 -1.258,-1.675 -1.262,-2.792c-0,-1.412 0.8,-2.596 1.933,-3.254l1.925,-17.504l0.025,16.946c2.075,0.045 3.746,1.716 3.746,3.8c0.004,2.083 -1.658,3.762 -3.729,3.812l0.041,33.667l0.013,3.233l0,2.467l3.958,-0.004l6.846,4.408l-1.866,4.517l-0.005,-1.975l-4.966,-3.846l-7.871,0.016l0.012,11.438c1.35,-0.208 2.7,-0.383 4.109,-0.396l-0,-0.016c0.033,-0 0.058,0.008 0.091,0.008c0.034,-0 0.059,-0.008 0.096,-0.008l0,0.016c10.1,0.05 18.738,5.254 25.463,15.321l-39.996,0.054l-4.65,3.475l37.892,-0.054l29.683,21.413l-4.583,12.97l-0.009,-9.612l-25.083,-18.646l-38.2,0.054l0.083,57.525l8.554,-0.017l-0.062,-42.041l0.075,0.008c0.2,-5.712 4.862,-10.3 10.621,-10.308c5.762,-0.013 10.441,4.558 10.654,10.279l0.071,0l0.066,42.029l8.225,-0.004l3.867,2.404l-0.063,-40.704l0.055,0.025c0.141,-3.908 3.404,-5.079 7.454,-2.563c4.042,2.526 7.316,7.767 7.467,11.863l0.058,0.033l0.054,40.709l8.092,5.041l0.008,5.2l-26.983,-16.804l-38.196,0.054c0.162,5.867 5.954,12.488 9.842,15.813l9.625,-5.721l73.541,43.858l-6.117,9.054l-67.404,-39.795l-0.008,-6.571l-70.458,42.05Zm31.475,-92.771l0.062,41.058l15,-9.404l-0.058,-41.071l-0.05,0.038c-0.159,-3.909 -3.421,-5.071 -7.463,-2.542c-4.037,2.533 -7.304,7.783 -7.437,11.883l-0.054,0.038Zm38.966,116.788l0,0.037l73.35,37.767l-8.633,7.525l-64.737,-33.03l-64.367,33.751l-5.971,-5.088l-2.75,-2.338l2.862,-1.516l0.08,-2.871l-0.238,-51.742l70.321,-41.816l0.083,59.321Zm-19.633,-10.638c1.983,-11.354 -2.8,-20.546 -10.687,-20.538c-7.884,0.013 -15.892,9.23 -17.871,20.584c-1.988,11.35 2.8,20.55 10.687,20.533c7.883,-0.012 15.883,-9.225 17.871,-20.579Zm-9.758,-16.892c2.083,-0.004 3.891,0.863 5.341,2.596c2.717,3.229 3.709,8.746 2.659,14.746c-1.734,9.929 -8.696,18.317 -15.196,18.338c-2.092,-0.005 -3.883,-0.871 -5.342,-2.6c-2.717,-3.234 -3.712,-8.742 -2.658,-14.755c1.733,-9.925 8.696,-18.321 15.196,-18.325Z" fill="#0c2340"/>
</svg>